<svg width="20" height="20" viewBox="0 0 20 20" fill="none" xmlns="http://www.w3.org/2000/svg">
<mask id="path-1-inside-1" fill="white">
<path fill-rule="evenodd" clip-rule="evenodd" d="M0.999999 10C0.999999 5.02944 5.02944 1 10 1C14.9706 1 19 5.02944 19 10C19 14.9706 14.9706 19 10 19C5.02944 19 1 14.9706 0.999999 10ZM0 10C0 4.47715 4.47715 0 10 0C15.5228 0 20 4.47715 20 10C20 15.5228 15.5228 20 10 20C4.47715 20 0 15.5228 0 10ZM10 8.76501L13.4425 12.2L14.5 11.1425L10 6.64251L5.5 11.1425L6.5575 12.2L10 8.76501Z"/>
</mask>
<path fill-rule="evenodd" clip-rule="evenodd" d="M0.999999 10C0.999999 5.02944 5.02944 1 10 1C14.9706 1 19 5.02944 19 10C19 14.9706 14.9706 19 10 19C5.02944 19 1 14.9706 0.999999 10ZM0 10C0 4.47715 4.47715 0 10 0C15.5228 0 20 4.47715 20 10C20 15.5228 15.5228 20 10 20C4.47715 20 0 15.5228 0 10ZM10 8.76501L13.4425 12.2L14.5 11.1425L10 6.64251L5.5 11.1425L6.5575 12.2L10 8.76501Z" fill="#8C9EFF"/>
<path d="M10 1L10 8.34465e-07L10 8.34465e-07L10 1ZM0.999999 10L-8.9407e-07 10L0.999999 10ZM19 10L20 10L20 10L19 10ZM10 19L10 18L10 18L10 19ZM20 10L21 10L21 10L20 10ZM10 20L10 19L10 19L10 20ZM13.4425 12.2L12.7362 12.9079L13.4433 13.6135L14.1496 12.9071L13.4425 12.2ZM10 8.76501L10.7063 8.05713L10 7.35234L9.29367 8.05713L10 8.76501ZM14.5 11.1425L15.2071 11.8496L15.9142 11.1425L15.2071 10.4354L14.5 11.1425ZM10 6.64251L10.7071 5.9354L10 5.2283L9.29289 5.9354L10 6.64251ZM5.5 11.1425L4.79289 10.4354L4.08579 11.1425L4.79289 11.8496L5.5 11.1425ZM6.5575 12.2L5.85039 12.9071L6.55673 13.6135L7.26384 12.9079L6.5575 12.2ZM10 8.34465e-07C4.47715 1.36428e-06 -1.35766e-06 4.47715 -8.9407e-07 10L2 10C2 5.58172 5.58172 2 10 2L10 8.34465e-07ZM20 10C20 4.47715 15.5228 4.37101e-07 10 8.34465e-07L10 2C14.4183 2 18 5.58172 18 10L20 10ZM10 20C15.5228 20 20 15.5228 20 10H18C18 14.4183 14.4183 18 10 18V20ZM-8.9407e-07 10C-3.64251e-07 15.5228 4.47715 20 10 20L10 18C5.58172 18 2 14.4183 2 10L-8.9407e-07 10ZM10 -1C3.92487 -1 -1 3.92487 -1 10H1C1 5.02944 5.02944 1 10 1V-1ZM21 10C21 3.92487 16.0751 -1 10 -1V1C14.9706 1 19 5.02944 19 10L21 10ZM10 21C16.0751 21 21 16.0751 21 10H19C19 14.9706 14.9706 19 10 19V21ZM-1 10C-1 16.0751 3.92487 21 10 21L10 19C5.02944 19 1 14.9706 1 10H-1ZM14.1488 11.4921L10.7063 8.05713L9.29367 9.47289L12.7362 12.9079L14.1488 11.4921ZM13.7929 10.4354L12.7354 11.4929L14.1496 12.9071L15.2071 11.8496L13.7929 10.4354ZM9.29289 7.34962L13.7929 11.8496L15.2071 10.4354L10.7071 5.9354L9.29289 7.34962ZM6.20711 11.8496L10.7071 7.34962L9.29289 5.9354L4.79289 10.4354L6.20711 11.8496ZM7.26461 11.4929L6.20711 10.4354L4.79289 11.8496L5.85039 12.9071L7.26461 11.4929ZM9.29367 8.05713L5.85117 11.4921L7.26384 12.9079L10.7063 9.47289L9.29367 8.05713Z" fill="#6571B3" mask="url(#path-1-inside-1)"/>
</svg>
