<svg width="21" height="20" viewBox="0 0 21 20" fill="none" xmlns="http://www.w3.org/2000/svg">
<path fill-rule="evenodd" clip-rule="evenodd" d="M19.5 10C19.5 14.9706 15.4706 19 10.5 19C5.52944 19 1.5 14.9706 1.5 10C1.5 5.02944 5.52944 1 10.5 1C15.4706 1 19.5 5.02944 19.5 10ZM20.5 10C20.5 15.5228 16.0228 20 10.5 20C4.97715 20 0.5 15.5228 0.5 10C0.5 4.47715 4.97715 0 10.5 0C16.0228 0 20.5 4.47715 20.5 10ZM10.5 11.235L7.0575 7.79999L6 8.85749L10.5 13.3575L15 8.85749L13.9425 7.79999L10.5 11.235Z" fill="#6571B3"/>
</svg>
