<svg width="18" height="18" viewBox="0 0 18 18" fill="none" xmlns="http://www.w3.org/2000/svg">
<path fill-rule="evenodd" clip-rule="evenodd" d="M8.99936 17.9987C13.9696 17.9987 17.9987 13.9696 17.9987 8.99936C17.9987 4.02915 13.9696 0 8.99936 0C4.02915 0 0 4.02915 0 8.99936C0 13.9696 4.02915 17.9987 8.99936 17.9987ZM16.4987 8.99936C16.4987 13.1411 13.1411 16.4987 8.99936 16.4987C4.85758 16.4987 1.5 13.1411 1.5 8.99936C1.5 4.85758 4.85758 1.5 8.99936 1.5C13.1411 1.5 16.4987 4.85758 16.4987 8.99936ZM8.25 4.75H9.75V6.25H8.25V4.75ZM8.25 7.75H9.75V13.25H8.25V7.75Z" fill="#6571B3"/>
</svg>
