<svg xmlns="http://www.w3.org/2000/svg" xmlns:xlink="http://www.w3.org/1999/xlink" version="1.1" x="0px" y="0px" viewBox="0 0 100 100" enable-background="new 0 0 100 100" xml:space="preserve"><g><path fill="#ffffff" d="M72,46c-1.104,0-2,0.896-2,2v6c0,11.028-8.972,20-20,20s-20-8.972-20-20v-6c0-1.104-0.896-2-2-2   s-2,0.896-2,2v6c0,12.56,9.7,22.89,22,23.91V86H36c-1.104,0-2,0.896-2,2s0.896,2,2,2h28c1.104,0,2-0.896,2-2s-0.896-2-2-2H52v-8.09   C64.3,76.89,74,66.56,74,54v-6C74,46.896,73.104,46,72,46z"></path><path fill="#ffffff" d="M50,14c-7.72,0-14,6.28-14,14v26c0,7.72,6.28,14,14,14s14-6.28,14-14V28C64,20.28,57.72,14,50,14z M50,64   c-5.514,0-10-4.486-10-10v-8h4c1.104,0,2-0.896,2-2s-0.896-2-2-2h-4v-4h4c1.104,0,2-0.896,2-2s-0.896-2-2-2h-4v-4h4   c1.104,0,2-0.896,2-2s-0.896-2-2-2h-3.798c0.929-4.559,4.969-8,9.798-8s8.869,3.441,9.798,8H56c-1.104,0-2,0.896-2,2s0.896,2,2,2h4   v4h-4c-1.104,0-2,0.896-2,2s0.896,2,2,2h4v4h-4c-1.104,0-2,0.896-2,2s0.896,2,2,2h4v8C60,59.514,55.514,64,50,64z"></path></g></svg>
